<svg width="348" height="78" viewBox="0 0 348 78" fill="none" xmlns="http://www.w3.org/2000/svg">
<rect x="54" y="14" width="50" height="50" rx="15" fill="#F0E6DC"/>
<g filter="url(#filter0_i_4_437)">
<path d="M123.678 61.48C120.998 61.48 118.598 60.96 116.478 59.92C114.398 58.88 112.778 57.3 111.618 55.18C110.458 53.02 109.878 50.28 109.878 46.96V28.72H119.238V45.58C119.238 48.26 119.798 50.24 120.918 51.52C122.078 52.76 123.698 53.38 125.778 53.38C127.218 53.38 128.498 53.08 129.618 52.48C130.738 51.84 131.618 50.88 132.258 49.6C132.898 48.28 133.218 46.64 133.218 44.68V28.72H142.578V61H133.698V52.12L135.318 54.7C134.238 56.94 132.638 58.64 130.518 59.8C128.438 60.92 126.158 61.48 123.678 61.48ZM170.33 61.48C167.49 61.48 165.05 60.88 163.01 59.68C160.97 58.48 159.41 56.66 158.33 54.22C157.25 51.74 156.71 48.62 156.71 44.86C156.71 41.06 157.27 37.94 158.39 35.5C159.55 33.06 161.15 31.24 163.19 30.04C165.23 28.84 167.61 28.24 170.33 28.24C173.37 28.24 176.09 28.92 178.49 30.28C180.93 31.64 182.85 33.56 184.25 36.04C185.69 38.52 186.41 41.46 186.41 44.86C186.41 48.22 185.69 51.14 184.25 53.62C182.85 56.1 180.93 58.04 178.49 59.44C176.09 60.8 173.37 61.48 170.33 61.48ZM151.25 61V16.48H160.61V35.26L160.01 44.8L160.19 54.4V61H151.25ZM168.71 53.8C170.27 53.8 171.65 53.44 172.85 52.72C174.09 52 175.07 50.98 175.79 49.66C176.55 48.3 176.93 46.7 176.93 44.86C176.93 42.98 176.55 41.38 175.79 40.06C175.07 38.74 174.09 37.72 172.85 37C171.65 36.28 170.27 35.92 168.71 35.92C167.15 35.92 165.75 36.28 164.51 37C163.27 37.72 162.29 38.74 161.57 40.06C160.85 41.38 160.49 42.98 160.49 44.86C160.49 46.7 160.85 48.3 161.57 49.66C162.29 50.98 163.27 52 164.51 52.72C165.75 53.44 167.15 53.8 168.71 53.8ZM192.675 61V16.48H202.035V61H192.675ZM214.802 73.12C213.122 73.12 211.462 72.86 209.822 72.34C208.182 71.82 206.842 71.1 205.802 70.18L209.222 63.52C209.942 64.16 210.762 64.66 211.682 65.02C212.642 65.38 213.582 65.56 214.502 65.56C215.822 65.56 216.862 65.24 217.622 64.6C218.422 64 219.142 62.98 219.782 61.54L221.462 57.58L222.182 56.56L233.762 28.72H242.762L228.182 62.98C227.142 65.58 225.942 67.62 224.582 69.1C223.262 70.58 221.782 71.62 220.142 72.22C218.542 72.82 216.762 73.12 214.802 73.12ZM220.322 62.26L205.922 28.72H215.582L226.742 55.72L220.322 62.26Z" fill="#F0E6DC"/>
</g>
<g filter="url(#filter1_i_4_437)">
<path d="M78.7076 57.6C75.9076 57.6 73.2243 57.2333 70.6576 56.5C68.091 55.7333 66.0243 54.75 64.4576 53.55L67.2076 47.45C68.7076 48.5167 70.4743 49.4 72.5076 50.1C74.5743 50.7667 76.6576 51.1 78.7576 51.1C80.3576 51.1 81.641 50.95 82.6076 50.65C83.6076 50.3167 84.341 49.8667 84.8076 49.3C85.2743 48.7333 85.5076 48.0833 85.5076 47.35C85.5076 46.4167 85.141 45.6833 84.4076 45.15C83.6743 44.5833 82.7076 44.1333 81.5076 43.8C80.3076 43.4333 78.9743 43.1 77.5076 42.8C76.0743 42.4667 74.6243 42.0667 73.1576 41.6C71.7243 41.1333 70.4076 40.5333 69.2076 39.8C68.0076 39.0667 67.0243 38.1 66.2576 36.9C65.5243 35.7 65.1576 34.1667 65.1576 32.3C65.1576 30.3 65.691 28.4833 66.7576 26.85C67.8576 25.1833 69.491 23.8667 71.6576 22.9C73.8576 21.9 76.6076 21.4 79.9076 21.4C82.1076 21.4 84.2743 21.6667 86.4076 22.2C88.541 22.7 90.4243 23.4667 92.0576 24.5L89.5576 30.65C87.9243 29.7167 86.291 29.0333 84.6576 28.6C83.0243 28.1333 81.4243 27.9 79.8576 27.9C78.291 27.9 77.0076 28.0833 76.0076 28.45C75.0076 28.8167 74.291 29.3 73.8576 29.9C73.4243 30.4667 73.2076 31.1333 73.2076 31.9C73.2076 32.8 73.5743 33.5333 74.3076 34.1C75.041 34.6333 76.0076 35.0667 77.2076 35.4C78.4076 35.7333 79.7243 36.0667 81.1576 36.4C82.6243 36.7333 84.0743 37.1167 85.5076 37.55C86.9743 37.9833 88.3076 38.5667 89.5076 39.3C90.7076 40.0333 91.6743 41 92.4076 42.2C93.1743 43.4 93.5576 44.9167 93.5576 46.75C93.5576 48.7167 93.0076 50.5167 91.9076 52.15C90.8076 53.7833 89.1576 55.1 86.9576 56.1C84.791 57.1 82.041 57.6 78.7076 57.6Z" fill="#76070D"/>
</g>
<defs>
<filter id="filter0_i_4_437" x="109.878" y="16.48" width="132.884" height="60.64" filterUnits="userSpaceOnUse" color-interpolation-filters="sRGB">
<feFlood flood-opacity="0" result="BackgroundImageFix"/>
<feBlend mode="normal" in="SourceGraphic" in2="BackgroundImageFix" result="shape"/>
<feColorMatrix in="SourceAlpha" type="matrix" values="0 0 0 0 0 0 0 0 0 0 0 0 0 0 0 0 0 0 127 0" result="hardAlpha"/>
<feOffset dy="4"/>
<feGaussianBlur stdDeviation="2"/>
<feComposite in2="hardAlpha" operator="arithmetic" k2="-1" k3="1"/>
<feColorMatrix type="matrix" values="0 0 0 0 0 0 0 0 0 0 0 0 0 0 0 0 0 0 0.25 0"/>
<feBlend mode="normal" in2="shape" result="effect1_innerShadow_4_437"/>
</filter>
<filter id="filter1_i_4_437" x="64.4576" y="21.4" width="29.1" height="40.2" filterUnits="userSpaceOnUse" color-interpolation-filters="sRGB">
<feFlood flood-opacity="0" result="BackgroundImageFix"/>
<feBlend mode="normal" in="SourceGraphic" in2="BackgroundImageFix" result="shape"/>
<feColorMatrix in="SourceAlpha" type="matrix" values="0 0 0 0 0 0 0 0 0 0 0 0 0 0 0 0 0 0 127 0" result="hardAlpha"/>
<feOffset dy="4"/>
<feGaussianBlur stdDeviation="2"/>
<feComposite in2="hardAlpha" operator="arithmetic" k2="-1" k3="1"/>
<feColorMatrix type="matrix" values="0 0 0 0 0 0 0 0 0 0 0 0 0 0 0 0 0 0 0.25 0"/>
<feBlend mode="normal" in2="shape" result="effect1_innerShadow_4_437"/>
</filter>
</defs>
</svg>
