<svg width="45" height="45" viewBox="0 0 45 45" fill="none" xmlns="http://www.w3.org/2000/svg">
<path d="M13.0775 8.13384C13.2949 8.82099 13.8585 9.58432 14.3667 10.1267C14.5253 10.2968 14.7049 10.071 14.8251 10.1829C15.0596 10.4013 15.0804 10.7134 15.3317 10.9191C15.4161 10.9868 15.7259 10.6774 15.806 10.7528C16.2426 11.1679 16.4096 11.6949 16.7716 12.1625C18.5584 14.4609 20.1341 16.8448 22.0622 19.2016C22.7003 19.9808 23.7494 20.711 24.3375 21.6211C24.4062 21.7282 24.0815 21.9176 24.0748 21.9558C24.0399 22.1796 24.0863 22.2357 24.1684 22.2237C24.3355 22.2366 24.5714 22.0347 24.7739 22.1494C26.0649 22.8558 27.1324 23.3075 28.012 23.8246C28.3878 24.0379 27.7246 24.5671 28.2758 24.336C28.3129 24.3201 28.3485 23.9162 28.4706 23.9167C28.7479 23.9201 29.1804 24.1358 29.3737 24.1612C29.7505 24.2104 29.8035 24.229 30.1416 24.316C30.6008 24.4291 31.1823 24.3651 31.6439 24.5508C31.7431 24.5918 31.5251 24.9566 31.6772 25.0573C31.8295 25.1586 32.2768 25.2092 32.4399 25.1418C32.6039 25.0751 32.5962 24.7534 32.6348 24.6869C32.9501 24.1243 33.3029 25.0382 33.3667 25.0689C34.4862 25.605 35.5466 25.2466 36.6172 25.3624C37.4311 25.4511 38.2809 25.6897 39.0388 25.7407C39.2575 25.7551 39.4736 25.7581 39.6741 25.7554C39.7783 25.7441 39.9032 25.7597 39.731 25.6911C39.6617 25.6613 39.5543 25.6274 39.3373 25.4848C39.167 25.3682 38.8972 25.1661 38.6716 24.7384C38.4403 24.3693 38.3766 23.5391 38.5691 23.1228C38.6453 22.9089 38.7724 22.7141 38.8208 22.651C38.8774 22.574 38.9303 22.514 38.9776 22.465C39.0725 22.3674 39.145 22.3122 39.1994 22.2736C39.2915 22.2112 39.3174 22.2047 39.3424 22.1947C39.4069 22.1813 39.2978 22.2503 39.1941 22.2967C39.0905 22.3449 38.9462 22.3975 38.8118 22.4349C38.7315 22.4579 38.6759 21.9794 38.5775 22.0065C37.5068 22.295 36.3343 22.6764 35.2538 23.3399C35.1466 23.4064 35.4174 23.7568 35.3177 23.8468C34.6926 24.391 33.8317 25.5265 32.8241 23.9664C32.3539 24.1991 31.7752 24.4815 31.4631 24.987C31.2633 25.3123 31.697 25.6301 31.2846 25.5816C31.1914 25.5716 31.1507 25.1637 31.0207 25.1771C30.4742 25.2337 29.98 25.5762 29.4065 25.6103C29.2897 25.6163 29.1706 25.2818 29.1152 25.2369C28.6498 24.88 28.6103 25.8464 28.5522 25.9455C28.1747 26.568 27.7182 26.743 27.2252 27.0222C27.1294 27.077 27.0335 27.1354 26.9384 27.2009C26.7998 27.2974 26.7016 26.7901 26.5554 26.8717C25.7949 27.3051 25.097 27.9527 24.6649 28.7188C24.5707 28.8891 24.9843 29.0403 24.9562 29.1343C24.8386 29.5401 24.2055 29.103 24.088 29.5079C24.0643 29.5915 24.3635 29.7728 24.3842 29.8078C24.7195 30.3455 23.9354 29.9814 23.8831 30.0209C23.236 30.4779 23.743 31.3437 23.3239 31.8585C23.2721 31.9228 22.9703 31.5537 22.8469 31.7508C22.0173 33.0762 21.6464 34.6766 21.6738 36.1152C21.6768 36.3403 22.0333 36.2624 22.0697 36.2853C22.639 36.6412 21.7798 36.5893 21.733 36.6534C21.3893 37.147 21.992 37.7829 20.9277 37.9367C20.9187 38.1527 20.9016 38.365 20.8783 38.5657C20.8616 38.7525 20.8121 38.9813 20.8114 38.999C20.825 38.9858 20.7955 38.9936 20.9555 38.7634C21.0082 38.6971 21.0688 38.6096 21.2521 38.4651C21.3372 38.3994 21.4898 38.2988 21.6838 38.229C21.9024 38.1478 22.1962 38.1029 22.4898 38.1486C23.1093 38.2588 23.3539 38.5582 23.4846 38.6976C23.6068 38.8434 23.653 38.9378 23.6829 38.9951C23.7882 39.2244 23.7615 39.2113 23.7685 39.2232C23.768 39.2241 23.7627 39.2 23.7578 39.1678C23.5324 37.7134 23.527 36.177 22.7275 34.6349C22.7138 34.6071 22.3033 34.7054 22.2778 34.6502C21.9603 33.9774 22.6253 34.0487 23.3318 33.4159C23.5085 33.2493 22.4858 33.0313 22.4096 33.0216C22.1296 32.9577 21.5483 33.2156 21.4906 33.1874C21.0328 32.9755 23.0637 32.5451 22.8835 31.9797C22.8747 31.9645 22.5393 32.1564 22.4886 32.1245C22.3321 32.0325 22.4207 31.8416 22.2401 31.7548C21.9647 31.6284 21.456 31.7511 21.2366 31.6842C21.1254 31.6529 21.0872 31.5658 21.1598 31.3333C21.1832 31.2442 22.1923 30.614 21.8084 30.2453C21.6656 30.0943 21.0441 29.4811 20.8167 29.4135C20.5898 29.3311 20.4826 29.7262 20.4587 29.7281C19.7024 29.781 19.7576 30.0848 19.1323 30.5479C18.5349 31.0339 19.5395 29.5981 19.5475 29.3715C19.5498 29.1406 19.0006 29.2958 18.8491 29.3775C18.697 29.457 18.6843 29.7231 18.5737 29.7547C17.8632 29.9753 18.7689 28.8738 18.7276 28.5394C18.6095 27.7436 17.7394 28.7782 17.3443 28.7511C17.2357 28.7432 17.4274 28.5021 17.3514 28.4409C17.0405 28.2003 16.6947 28.5018 16.4246 28.0092C16.3862 27.9306 16.3046 27.0742 15.9143 27.5496C15.8589 27.6184 15.8401 27.9532 15.6696 27.9734C15.4115 28.0027 14.9983 27.9479 14.7864 27.7725C14.6334 27.6437 14.9867 27.1914 14.717 27.285C14.5973 27.3273 14.6929 27.6802 14.4764 27.7351C14.259 27.7891 13.796 27.6468 13.6163 27.5885C13.4382 27.5298 13.641 27.1648 13.6332 27.1345C13.5867 26.9603 13.286 26.6811 13.254 26.6738C11.7016 26.2305 10.1259 26.5991 8.66309 26.0847C8.54782 26.045 8.7077 25.6411 8.69095 25.6307C8.31662 25.3766 8.42412 26.5529 8.06911 26.8719C8.2716 26.0286 8.07698 26.151 7.80849 26.004C7.67906 25.9325 7.81581 25.6168 7.80956 25.5807C7.69691 25.0414 7.43427 25.6621 7.37368 25.7878C7.14923 26.2499 7.10771 25.6475 6.95577 25.9562C6.80471 26.2626 6.92912 26.7803 6.65615 26.7243C6.63443 26.4052 6.98372 25.645 6.79803 25.4778C6.0989 24.8451 4.5191 25.2153 3.87904 25.1728C3.82888 25.1694 3.78143 25.1657 3.73636 25.1618C3.17139 25.1134 2.95916 25.0529 2.58486 25.123C1.85648 25.2776 2.15709 24.6941 1.67476 24.4116C1.16551 24.1446 1.46244 25.6209 1.40781 25.9397C1.36431 26.2596 1.2847 25.9361 1.22619 26.1156C1.17225 26.2951 1.32844 26.4993 1.1857 26.5771C1.07837 26.6364 0.792328 26.3453 0.623589 26.103C0.558334 25.9784 0.478241 26.152 0.455391 26.208C0.31002 26.5493 0.105915 26.8398 0.0181389 27.071C-0.0617905 27.3071 0.126316 27.5566 0.503986 27.5328C0.544365 27.5287 0.54369 27.1228 0.686619 27.124C1.36452 27.1097 1.91687 27.0607 2.48717 26.9296C2.79856 26.852 3.09486 26.7538 3.37778 26.6101C3.48251 26.5553 3.31339 26.1447 3.37106 26.1082C3.95522 25.7165 3.85695 26.4767 4.44413 27.1688C4.09255 26.1433 4.12701 25.4645 4.55682 25.316C4.82014 25.2211 4.93077 25.6804 5.23515 25.9199C5.32925 25.9914 5.40507 25.6106 5.52657 25.7989C5.93458 26.4092 6.06189 27.2485 6.46415 26.7036C6.48013 26.6788 6.23593 26.3566 6.30289 26.2974C6.72135 25.911 7.14114 26.5468 7.73269 26.2923C8.20018 26.0904 8.62349 25.2077 8.97009 24.8106C8.18761 23.8857 8.70751 23.8056 9.4215 24.2824C9.64813 24.0283 9.94211 23.8067 10.0857 23.4925C10.1344 23.3855 9.83106 23.194 9.81353 23.1576C9.52772 22.5966 10.2134 23.0532 10.2874 23.0203C11.0465 22.6529 10.9693 21.7795 11.8914 21.5767C11.9239 21.5701 12.6181 22.0505 12.2512 21.5177C12.2246 21.4826 11.7743 21.4411 11.9588 21.1501C12.1449 20.8573 12.1562 20.0768 12.7436 19.917C12.8855 19.8786 13.615 20.0275 13.3055 19.533C13.263 19.4665 13.0445 19.3581 12.9584 19.2457C12.6846 18.8867 13.4337 19.2992 12.9276 18.7556C12.4216 18.2119 12.1588 17.6309 12.831 17.5151C12.8512 17.5107 13.4767 17.7875 13.5483 17.6577C13.6622 17.4507 13.7253 17.0939 13.8617 16.8898C13.9272 16.7921 14.2391 17.082 14.2566 17.0689C14.8825 16.5292 14.8685 15.8535 15.1914 15.0547C15.2052 15.02 15.2562 14.99 15.3229 14.9579C15.5404 14.8531 15.9284 14.7002 15.7443 14.3239C15.4706 13.7943 13.5235 13.0873 14.2496 12.7414C14.5258 12.6251 17.0912 13.2987 16.0334 12.2775C16.7202 11.3986 16.283 10.3006 16.9111 9.36026C16.939 9.31862 17.6822 9.27189 17.6879 9.1533C17.6947 8.97958 17.3675 8.84591 17.3587 8.72438C17.3121 8.21528 17.6347 7.77587 17.6076 7.28183C17.5973 7.09556 17.2438 7.14962 17.2291 6.93176C17.2137 6.71601 17.6791 6.57018 17.4528 6.27254C17.2799 6.04635 16.328 5.85063 16.2065 5.57423C17.1396 5.52659 17.1139 5.32599 17.3379 4.94957C17.3813 4.87688 17.7107 4.93132 17.7479 4.89563C17.9066 4.74777 17.6287 4.64068 17.8008 4.49821C17.842 4.46343 18.1601 4.43714 18.2118 4.40668C18.6631 4.14385 17.9131 3.84134 17.7824 3.79474C17.2863 3.60773 17.6868 3.45428 17.4802 3.29488C17.2736 3.13829 17.0728 3.43109 16.9357 3.23793C16.6521 2.83835 16.6269 2.28798 16.5441 1.85823C16.5131 1.68688 16.9524 1.73735 16.9577 1.7113C16.9841 1.51445 16.8547 1.33777 16.8441 1.17003C16.8159 1.02547 16.8809 0.868422 17.2309 0.648285C15.0671 1.11063 17.378 0.375632 16.7453 0.00182517C16.6905 -0.0313114 15.7452 0.394154 15.649 0.552604C15.5532 0.712261 15.9325 0.801347 15.7728 1.07232C15.737 1.13852 14.8937 1.69251 14.8469 1.74228C14.826 1.76632 14.8115 1.78754 14.8027 1.8062L14.7366 1.52919C14.5609 1.81672 15.9265 1.63266 16.0082 1.63526C16.9462 1.67271 15.9664 2.19173 15.9075 2.29022C15.6417 2.75709 15.9042 3.07977 15.7102 3.45622C15.5846 3.70081 14.577 3.8335 14.6259 3.99995C14.7842 4.54671 16.2147 4.66031 15.0203 5.27654C14.7643 5.40609 13.6518 5.34629 14.5404 5.70512C14.5965 5.72486 15.4048 6.00697 14.9016 6.19097C14.8383 6.21362 14.5147 6.21731 14.4879 6.24566C14.3141 6.43395 14.5721 6.55846 14.446 6.76014C14.3198 6.96152 14.1288 7.19155 14.2268 7.42101C14.2857 7.55769 14.8754 7.77336 15.0173 7.85334C15.4271 8.07979 14.7135 8.22002 15.2132 8.38845C15.7141 8.56778 16.5239 8.39951 16.8171 8.77987C15.9808 8.69396 15.1209 8.61865 14.2796 8.53327C14.2312 9.17414 14.3792 9.84924 14.1739 10.4569C14.1478 10.5309 13.7336 10.3338 13.6948 10.4072C13.5338 10.7113 13.7462 11.0963 13.4994 11.3821C13.3063 11.6026 12.7532 11.6749 12.533 11.8517C13.3286 12.4192 12.8384 12.6523 12.76 12.9465C12.7315 13.0518 12.9534 13.181 12.983 13.2916C13.003 13.3703 12.9951 13.414 12.969 13.4322C12.8388 13.5391 12.4082 13.1403 12.2712 13.1525C11.5477 13.2205 13.1453 14.2935 12.8248 14.7055C12.8083 14.7278 11.7636 14.4576 11.685 14.462C11.1763 14.4842 11.9595 14.6953 11.9246 14.8904C11.8615 15.2457 11.9426 15.5732 11.4803 15.7357C11.3441 15.7827 10.6619 15.6603 10.9581 16.1111C10.9968 16.1704 11.2893 16.3424 11.2933 16.3725C11.342 16.9027 10.4456 16.3264 10.0168 16.3205C9.58836 16.3142 10.0007 17.0177 10.1341 17.198C10.4799 17.6646 10.4105 17.2082 10.4606 17.2298C11.0599 17.4862 10.8207 17.6442 10.751 17.8416C11.5967 18.4554 11.3815 18.6571 10.6753 18.0433C10.5983 17.9762 10.7674 17.9022 10.751 17.8416C9.80437 17.4105 9.53089 17.5763 10.1171 18.4043C10.3909 18.7927 10.9044 18.9775 10.463 19.2597C10.2633 19.3861 9.73388 18.8922 9.46398 18.9269C8.85247 19.0002 9.04489 19.8443 8.68363 20.1126C8.55369 20.2085 8.349 19.8395 8.25081 19.8948C7.99187 20.037 8.05411 20.4151 7.75793 20.5157C7.73106 20.524 7.46624 20.203 7.40686 20.2602C6.95178 20.684 6.76099 21.2418 6.2965 21.6432C6.06998 21.8411 5.53288 21.9605 5.32748 22.1465C4.98155 22.4721 4.71777 23.2828 4.26466 23.3024C3.98006 23.3126 3.89558 22.9015 3.70723 22.6704C3.36703 22.215 3.3139 23.2351 3.27987 23.3964C3.27822 23.4027 3.52001 23.4428 3.45362 23.6774C3.48656 24.1233 3.28112 23.398 3.27987 23.3964C3.27324 23.502 2.84251 23.6794 2.73938 23.6096C2.6847 23.5736 2.66033 23.1828 2.6343 23.1711C2.49454 23.1078 2.36055 23.0533 2.22634 23.0084C2.1245 22.9262 2.00782 22.8703 1.92662 22.8476C1.88939 22.8375 1.85448 22.8325 1.89046 22.8566C1.91254 22.8709 1.94442 22.8865 2.07502 22.9528C2.14371 22.9896 2.23202 23.03 2.43793 23.1622C2.54121 23.2324 2.6716 23.3119 2.92003 23.5406C3.11371 23.7871 3.65601 24.0429 3.96788 25.5409C4.02964 26.1059 3.88382 25.9735 3.77995 26.0204C3.72295 26.0451 3.67413 26.1124 3.61249 26.3381C3.55111 26.5473 3.4548 26.9904 3.20121 27.4569C3.0757 27.6895 2.93188 27.8816 2.79199 28.036C2.61243 28.2329 2.44568 28.3635 2.32397 28.4491C2.21484 28.525 2.12226 28.5787 2.04237 28.6211C1.90517 28.6929 1.7999 28.7335 1.73812 28.7555C1.59734 28.8051 1.53512 28.8173 1.48811 28.8298C1.39617 28.8521 1.37674 28.8609 1.36555 28.878C1.34916 28.9101 1.38689 28.9639 1.42594 29.0355C1.50967 29.1778 1.61669 29.3844 1.73195 29.5422C1.9698 29.861 2.17052 29.7706 2.42722 29.0428C2.6016 29.1356 2.87405 28.9763 3.10625 28.8299C3.17975 28.7947 3.2479 28.7592 3.30721 28.7277C3.59766 28.5736 3.48832 29.4176 3.50793 29.438C4.11567 30.0891 4.60331 29.6799 5.33664 29.7334C5.68769 29.7577 6.34408 30.0018 6.69265 30.1613C6.97094 30.2891 7.18275 30.1262 7.42409 30.3018C7.45723 30.3254 7.34973 30.6903 7.35808 30.7067C7.57099 31.2085 7.60174 30.2722 7.69459 30.1217C8.03178 29.5746 8.22891 29.2864 8.55832 29.6398C8.63529 29.7211 8.62465 31.0779 8.76665 31.1864C8.95205 31.3252 8.9709 30.8414 9.1614 30.9989C9.17767 31.012 9.11434 31.2997 9.24752 31.3142C9.87051 31.3867 10.5635 31.3636 11.175 31.5392C11.2578 31.5619 11.0425 31.9911 11.1602 32.0314C11.7147 32.2208 12.323 32.3592 12.9057 32.2961C13.0514 32.2797 13.0586 31.9418 13.1136 31.8563C13.4534 31.3413 13.456 32.2329 13.491 32.2605C14.3034 32.9345 15.2567 32.4471 15.9098 33.1392C15.9534 33.1815 15.8481 34.1432 16.3234 33.5069C16.3529 33.4631 16.8619 32.822 16.7058 33.3647C16.6941 33.3977 16.4239 33.7199 16.5644 33.7512C16.7084 33.7852 16.7164 34.1153 17.0934 33.8275C17.2034 33.7296 17.8132 33.1844 17.4926 33.7525C17.4811 33.772 17.2704 34.0826 17.1207 34.2748C16.975 34.4708 16.8892 34.5437 17.2641 34.215C17.3824 34.1015 18.1851 33.4144 17.813 33.8147C17.7339 33.8838 17.5444 34.0233 17.4292 34.1146C17.3785 34.1516 17.356 34.1609 17.342 34.1602C17.2001 33.9875 17.2391 33.9108 16.9183 34.0268C16.8415 34.0614 16.1543 34.2554 16.697 34.1868C16.7824 34.178 17.1189 34.0704 17.1677 34.1054C17.4055 34.2882 17.2359 34.7262 17.526 35.1229C17.6287 35.2688 18.1854 35.1233 18.3555 35.2769C18.5254 35.4287 18.7062 35.7746 18.4644 35.989C18.2225 36.2034 17.3 36.076 17.2534 36.3687C17.071 37.519 17.5738 38.7376 17.9048 40.026C17.9345 40.1707 17.9635 40.3137 18.0248 40.5552C18.0571 40.6785 18.0938 40.817 18.1678 41.0322C18.2638 41.2675 18.2929 41.4969 18.7631 42.2011C18.92 42.4267 19.2391 42.8162 19.6534 43.1335C20.1421 43.512 20.7699 43.8307 21.5315 43.9653C23.0502 44.2026 23.9436 43.7001 24.3388 43.5144C24.7965 43.2669 24.9458 43.1442 25.1086 43.0332C25.2575 42.9279 25.3815 42.831 25.4742 42.7613C25.8803 42.4657 26.3866 41.8193 26.5855 41.2899C26.8705 40.5453 26.9259 40.2633 27.0351 39.8712C27.3362 38.7441 27.6157 37.7143 27.2355 37.0131C26.8518 36.2945 26.2515 36.9238 26.1543 36.4122C26.1123 36.1556 27.1922 36.2267 27.2376 36.1923C27.7019 35.8296 27.3697 35.3762 27.6603 35.0507C27.7198 34.9864 28.0821 35.2271 28.1275 35.1731C28.2846 34.995 28.212 34.7047 28.3402 34.5371C28.3983 34.4634 28.6773 34.6341 28.6939 34.5518C28.7377 34.3573 28.7038 34.1489 28.5549 33.8205C28.5424 33.7891 28.1351 33.6672 28.2082 33.5311C28.3247 33.3163 28.2826 32.8735 28.7059 32.8655C28.8334 32.8636 29.3814 33.368 29.1182 32.8964C29.0633 32.7988 28.3924 32.2003 29.088 32.6004C29.2146 32.6546 30.1299 33.2277 29.8103 32.6223C29.7256 32.4622 29.3589 31.8155 29.5159 31.8412C29.5375 31.848 29.7383 32.1987 29.8254 32.182C30.0135 32.1421 30.168 32.0534 30.3405 31.9792C30.4459 31.934 30.5637 31.8908 30.6991 31.8688C30.7913 31.856 30.885 32.2795 31.0133 32.2508C31.3707 32.1699 31.7571 31.8618 32.085 31.5732C32.2034 31.467 31.9683 31.1957 31.9628 31.1571C31.8841 30.5264 32.3168 31.2345 32.3901 31.2552C32.8479 31.372 32.9782 30.9045 33.3589 30.8674C33.4634 30.8564 33.5358 31.2478 33.5671 31.2732C33.8808 31.5189 33.4875 30.9162 33.5841 30.7969C33.8563 30.46 34.2693 30.3456 34.6544 30.2661C34.796 30.2375 34.7914 30.719 34.916 30.6887C35.6562 30.5183 36.4077 30.2344 37.0754 29.769C37.2001 29.6809 37.011 29.3731 37.0166 29.2879C37.054 28.6926 37.577 29.3309 37.6635 29.3808C38.0734 29.6039 38.1025 29.2729 38.4024 29.2441C39.0842 29.181 39.8134 28.9987 40.6175 28.7174C41.0643 28.5518 41.3795 28.4592 42.242 28.0243C42.3335 27.9754 42.5286 27.8713 42.7234 27.7462C42.8301 27.6774 42.9166 27.6205 43.0781 27.5C43.2673 27.3567 43.4918 27.1747 43.7632 26.8782C43.8993 26.7279 44.0424 26.5542 44.1994 26.3184C44.4369 25.9596 44.6975 25.4664 44.8485 24.8059C45.0026 24.1531 45.0042 23.3283 44.7938 22.5985C44.6148 21.9558 44.3058 21.4198 43.995 21.027C43.3708 20.2433 42.737 19.9297 42.5774 19.8374C42.3213 19.7004 42.1121 19.6158 41.9317 19.5508C40.8009 19.2027 40.7069 19.2988 40.3336 19.2538C40.2409 19.253 40.1488 19.2523 40.0577 19.2514C38.2342 19.238 36.9021 19.4551 35.3455 19.1598C35.2474 19.1414 35.4092 18.6941 35.3261 18.6724C34.2572 18.4132 33.1901 18.4153 32.2657 18.0552C32.1911 18.0266 32.4051 17.625 32.2905 17.565C32.0569 17.4389 31.7556 17.3821 31.4877 17.4479C31.3569 17.479 31.397 17.8867 31.2652 17.9096C30.9571 17.9633 30.6693 17.8965 30.466 17.7389C30.3818 17.6714 30.6912 17.3104 30.5753 17.2576C30.0752 17.0338 29.8187 16.7423 29.9025 16.995C29.5808 16.7485 29.2135 16.5085 28.7732 16.292C28.6894 16.2517 27.9248 16.7632 27.9444 16.5035C28.1358 16.3354 28.3719 16.1518 28.5822 15.9795C27.5799 14.4578 26.259 13.0051 25.1819 11.3043C25.1367 11.2326 25.6282 11.1085 25.5434 10.9692C25.0524 10.1605 24.7086 9.29206 23.8049 8.66529C23.7159 8.60256 22.9947 9.06337 22.9658 8.74584C22.9615 8.68985 22.8479 8.2498 22.9558 8.06104C22.9729 8.0341 23.3606 7.91166 23.3028 7.78256C22.9604 7.03489 22.4693 6.31722 21.8623 5.69913C21.7636 5.59953 21.4568 5.92601 21.3832 5.85675C20.8642 5.36431 20.801 4.55719 20.1533 4.15943C19.7175 3.8922 19.1463 4.38123 18.3991 4.51443C18.2934 4.53262 18.1511 4.29949 17.7736 4.48482C16.8238 4.94957 15.8638 5.60885 14.8441 6.09047C14.6243 6.19392 14.6863 5.75431 14.2686 6.2174C14.2409 6.24868 14.192 6.57109 14.047 6.72216C13.9468 6.82667 13.5312 6.95533 13.4191 7.11948C13.3076 7.2844 13.6702 7.20319 13.5593 7.4353C13.4458 7.66807 12.9857 7.83829 13.0775 8.13384ZM4.61161 28.0413C4.91788 27.6803 4.69416 29.1594 4.50164 28.7625C4.4926 28.7416 4.59599 28.0589 4.61161 28.0413ZM15.466 10.0822C16.0467 10.5117 15.0556 10.4679 14.607 10.1604C14.1542 9.86736 15.288 9.95873 15.466 10.0822ZM16.2988 7.13978C16.8056 7.51548 14.6849 7.46118 15.1266 7.13138C15.1514 7.11233 16.2692 7.11859 16.2988 7.13978ZM18.7244 5.56527C18.7053 5.57154 18.5964 5.4078 18.6116 5.39454C18.9822 5.07975 19.1996 5.40713 18.7244 5.56527ZM16.7047 3.98616C17.0018 4.07264 16.7002 4.42648 16.3327 4.3178C16.0377 4.23344 16.336 3.88251 16.7047 3.98616ZM17.0542 29.421C17.0658 29.4015 17.2011 29.4368 17.1496 29.5519C16.9807 29.9207 16.8544 29.7437 17.0542 29.421ZM16.6963 1.01775C16.6153 0.284936 14.9356 -0.498749 15.0689 0.56338C15.0989 0.736412 15.6407 0.208941 15.7901 0.435597C16.0639 0.825044 14.9665 1.07082 15.5553 1.45616C15.6631 1.52516 16.704 1.06103 16.6987 1.01633C16.6979 1.01681 16.6971 1.01728 16.6963 1.01775ZM5.05713 26.2957C5.06483 26.2769 5.25965 26.2921 5.26084 26.3122C5.28207 26.7979 4.89084 26.7679 5.05713 26.2957ZM22.3759 35.2053C22.4193 35.2118 22.501 35.661 22.4634 35.6794C21.7122 35.9835 21.5456 35.086 22.3759 35.2053ZM8.95563 24.7805C9.43641 25.0009 9.69587 24.846 9.42116 24.2835C9.27833 24.4578 9.10988 24.6124 8.95563 24.7805Z" fill="#506916"/>
</svg>
