<svg width="56" height="81" viewBox="0 0 56 81" fill="none" xmlns="http://www.w3.org/2000/svg">
<path d="M37.9806 12.9163C37.735 14.0141 37.1176 15.3583 36.5649 16.3523C36.392 16.6648 36.2009 16.4094 36.0706 16.6201C35.8164 17.0313 35.7902 17.4951 35.518 17.8949C35.4264 18.0275 35.0956 17.7045 35.0085 17.8467C34.5341 18.6277 34.3501 19.4591 33.957 20.2836C32.0188 24.3366 30.3134 28.4111 28.2864 32.5398C27.6178 33.9016 26.4903 35.4177 25.9183 36.8982C25.8515 37.0721 26.2296 37.1422 26.2405 37.1875C26.3962 37.8998 25.821 37.3921 25.5662 37.6649C24.9393 38.3386 24.3893 39.1124 23.9015 39.9012C23.5196 40.5234 23.1064 41.0945 22.6955 41.6089C22.2342 42.1668 23.2671 42.1749 22.4429 42.397C22.3874 42.4105 22.2539 42.001 22.083 42.1019C21.7019 42.3337 21.1049 42.8866 20.8187 43.0418C20.2662 43.3454 20.1849 43.398 19.6852 43.685C18.9956 44.0705 18.0963 44.2804 17.3892 44.6589C17.2379 44.7409 17.5991 45.0293 17.3666 45.1945C17.1322 45.3627 16.4322 45.5781 16.1722 45.5624C15.9124 45.549 15.9124 45.2166 15.8495 45.1613C15.3369 44.6907 14.8137 45.725 14.7121 45.773C12.9586 46.629 11.2758 46.4591 9.59143 46.7407C8.31232 46.9543 6.96439 47.2994 5.79567 47.4524C5.69786 47.4652 5.60284 47.4768 5.51048 47.4874C5.41002 47.4952 5.33914 47.5107 5.41099 47.4777C5.44644 47.4555 5.53513 47.4394 5.78653 47.2515C5.851 47.1999 5.89925 47.1609 5.99745 47.0589C6.09725 46.9535 6.20466 46.8155 6.29717 46.6434C6.48891 46.3038 6.57432 45.8119 6.51486 45.4403C6.48904 45.2535 6.43964 45.0961 6.38723 44.9709C6.33563 44.8503 6.30255 44.7953 6.26224 44.7292C6.18488 44.6063 6.11995 44.5348 6.07402 44.4884C6.00335 44.421 5.97398 44.4095 5.97218 44.4154C5.96619 44.428 6.04095 44.4954 6.11647 44.5542C6.46395 44.8182 6.99378 45.1155 7.56226 45.3611C7.69384 45.4184 7.73927 44.9196 7.9013 44.9889C9.61313 45.7136 11.3882 46.5428 13.0049 47.6938C13.1679 47.81 12.757 48.0693 12.9082 48.2074C13.8481 49.0418 15.0744 50.6368 16.6138 49.4613C17.2994 49.9442 18.1363 50.5645 18.5477 51.299C18.8111 51.7722 18.166 51.8643 18.7556 52.0541C18.8887 52.099 18.9817 51.6763 19.1671 51.7709C19.8809 52.1365 20.4954 52.7663 21.1868 53.2344C21.2507 53.2779 21.3153 53.32 21.3808 53.3604C21.5407 53.4586 21.7553 53.1735 21.838 53.1659C22.5313 53.1244 22.4034 54.2641 22.4475 54.4166C22.8603 55.624 23.4763 56.1989 24.0297 57.1353C24.1553 57.3525 24.4127 56.8533 24.5495 57.0575C25.2539 58.1255 25.7746 59.3419 26.0147 60.5429C26.0665 60.8102 25.6 60.7266 25.6047 60.8605C25.6241 61.4421 26.3854 61.3004 26.4032 61.8648C26.4071 61.9828 26.0579 62.0322 26.0283 62.0638C25.5609 62.551 26.4481 62.5513 26.4913 62.6274C27.0432 63.5557 26.3568 64.4233 26.7026 65.341C26.7446 65.4519 27.112 65.093 27.2041 65.4129C27.8208 67.5516 28.0431 69.8755 27.9706 72.0136C27.9607 72.3497 27.6028 72.1581 27.5653 72.1842C26.9804 72.6033 27.8513 72.7034 27.8973 72.8075C28.1063 73.3004 27.9548 73.8328 28.0674 74.2502C28.1356 74.5014 28.3067 74.7171 28.7188 74.8374C28.7271 74.9718 28.7388 75.103 28.7513 75.2114C28.7572 75.2644 28.764 75.3137 28.7664 75.3405C28.7618 75.3566 28.7891 75.4044 28.697 75.2269C28.6663 75.1755 28.6313 75.1016 28.4992 74.9482C28.4362 74.8774 28.3042 74.7385 28.0937 74.6151C27.8559 74.4657 27.3736 74.3151 26.9109 74.4135C26.688 74.4549 26.4743 74.5525 26.3453 74.6339C26.2243 74.7086 26.1305 74.787 26.0566 74.8589C25.8986 75.0185 25.8654 75.0826 25.8145 75.1594C25.7212 75.3161 25.7159 75.3502 25.6928 75.407C25.6426 75.5609 25.6678 75.5182 25.6722 75.4978C25.6903 75.4368 25.7118 75.3112 25.7284 75.1841C26.095 72.3197 25.9445 69.3878 26.9024 66.4793C26.9162 66.435 27.3281 66.5461 27.3537 66.458C27.672 65.3882 27.0066 65.5524 26.2847 64.7354C26.1035 64.5274 27.1239 64.0635 27.2009 64.0243C27.481 63.8755 28.0762 64.1396 28.1336 64.0858C28.5892 63.6531 26.5293 63.4591 26.6476 62.7373C26.6548 62.7157 27.0125 62.8736 27.0599 62.8205C27.2079 62.6596 27.0943 62.4474 27.2594 62.2941C27.6497 61.9283 28.6328 62.0656 28.264 61.3021C28.2283 61.2024 27.2296 61.0141 27.3355 60.4194C27.344 60.3712 27.3613 60.3208 27.389 60.2688C27.5054 60.0094 28.0846 58.9025 28.3553 58.6705C28.6104 58.4298 28.7879 58.8388 28.8159 58.8264C29.7275 58.4083 29.7033 58.8051 30.5212 58.9596C31.3239 59.1469 29.9327 58.0813 29.9033 57.8191C29.8749 57.5526 30.6096 57.3895 30.8131 57.3987C31.0185 57.4008 31.0506 57.7001 31.1996 57.6707C32.1707 57.5012 30.8968 56.7715 30.9377 56.3655C31.0693 55.3917 32.3134 56.0901 32.8718 55.866C33.0277 55.8028 32.7507 55.6319 32.8595 55.5264C33.3009 55.1112 33.8048 55.2784 34.1994 54.629C34.2633 54.5225 34.3737 53.5724 34.9555 53.9211C35.0365 53.9727 35.0606 54.3234 35.3122 54.2774C35.6906 54.2071 36.3124 53.9904 36.6295 53.7312C36.8611 53.5404 36.3395 53.1876 36.744 53.1905C36.9238 53.1928 36.7714 53.5997 37.097 53.5814C37.4205 53.5624 38.1294 53.2561 38.396 53.1415C38.6643 53.0244 38.3685 52.7057 38.3804 52.6717C38.4587 52.4724 38.9213 52.0883 38.9691 52.0718C41.3428 51.14 43.7528 51.1353 46.0243 50.264C46.2032 50.1963 45.9665 49.8191 45.9926 49.8046C46.5756 49.4573 46.3833 50.6882 46.9206 50.9342C46.6281 50.1162 46.9263 50.1965 47.3455 49.9843C47.5475 49.8813 47.3433 49.5892 47.3538 49.5507C47.5371 48.9733 47.929 49.5497 48.0205 49.6645C48.3581 50.0867 48.4365 49.4603 48.6632 49.7425C48.8895 50.0224 48.6879 50.5797 49.1091 50.4616C49.1487 50.1303 48.6259 49.4304 48.9149 49.218C49.2543 48.9693 49.7168 48.8009 50.2314 48.6797C51.5177 48.3609 53.033 48.5743 53.8746 48.776C54.048 48.8145 54.2136 48.858 54.3903 48.9248C54.478 48.9586 54.5724 48.9985 54.6824 49.0626C54.7899 49.1343 54.9325 49.1957 55.112 49.4796C55.2426 49.6907 55.2713 49.9933 55.2225 50.1859C55.1793 50.3759 55.1054 50.4926 55.0493 50.5741C54.9314 50.7366 54.8368 50.8091 54.7574 50.8721C54.5946 50.9944 54.4707 51.0556 54.3485 51.1111C54.1088 51.2157 53.8904 51.2714 53.6325 51.2984C52.3645 51.3349 52.9139 51.8444 52.022 52.1185C51.9474 52.1362 51.8819 52.1412 51.8247 52.1361C51.2683 52.0789 51.7514 50.8543 51.6935 50.5534C51.6481 50.2262 51.5013 50.5347 51.419 50.3426C51.3432 50.1511 51.6086 49.9805 51.3766 49.8702C51.1558 49.7702 50.3409 50.1231 50.1255 50.3931C49.6912 50.9823 49.7837 51.8213 49.1048 51.2683C49.0683 51.2359 49.3575 50.9366 49.2121 50.8315C48.0654 50.0095 46.9753 49.1723 46.2234 48.0879C46.121 47.9382 46.5352 47.7362 46.4809 47.6469C45.9527 46.7245 45.696 47.4967 44.687 47.5934C45.5828 46.9738 45.8544 46.3061 45.3837 45.71C45.0991 45.3429 44.7799 45.6971 44.3267 45.6484C44.1892 45.6328 44.2495 45.167 44.0356 45.248C43.3288 45.5014 42.8535 46.2453 42.6279 45.3484C42.6199 45.3093 43.0136 45.1836 42.9623 45.065C42.6374 44.2946 41.9472 44.6219 41.3945 43.8897C40.9631 43.3187 40.7564 42.0002 40.4611 41.2664C41.5403 40.715 40.9627 40.2034 40.079 40.3038C39.882 39.8353 39.5963 39.3567 39.4905 38.865C39.4534 38.6952 39.8184 38.6451 39.8435 38.6095C40.2418 38.0608 39.4135 38.2089 39.3381 38.1228C38.5552 37.1737 38.7286 36.0436 37.7265 35.2501C37.6908 35.2222 36.8916 35.4972 37.3362 34.9752C37.3675 34.9407 37.8669 35.1309 37.6839 34.6317C37.5011 34.133 37.526 33.0383 36.8812 32.514C36.7255 32.3868 35.9208 32.2385 36.2733 31.6986C36.3215 31.6262 36.5646 31.5809 36.6616 31.4648C36.9694 31.092 36.1373 31.3098 36.7019 30.7867C37.2662 30.2634 37.5531 29.5479 36.8039 29.0595C36.7813 29.0434 36.0916 29.1456 36.0106 28.9281C35.9906 28.874 35.9718 28.8153 35.9538 28.7535C35.8543 28.415 35.7876 27.9816 35.6682 27.6775C35.6002 27.5049 35.2502 27.7639 35.2316 27.7364C34.5684 26.6274 34.6491 25.6395 34.4699 24.3057C34.4381 24.0642 33.7137 23.4992 34.0567 22.9335C34.436 22.3216 36.5474 22.4223 35.855 21.3985C35.5834 20.9982 32.9003 20.7915 34.1237 19.738C33.5719 18.1144 34.144 16.5211 33.608 14.8712C33.5842 14.7974 32.8485 14.5791 32.8539 14.3981C32.8634 14.1304 33.2011 13.9779 33.2205 13.7882C33.3109 12.995 33.0222 12.2671 33.0819 11.5005C33.1042 11.2095 33.4538 11.3187 33.4821 10.9741C33.5108 10.6314 33.0545 10.383 33.2968 9.92309C33.4817 9.57425 34.4442 9.2687 34.5796 8.81273C33.6476 8.74365 33.683 8.42601 33.4741 7.8366C33.4335 7.72337 33.1012 7.82021 33.0653 7.76543C32.912 7.54109 33.1945 7.36436 33.0271 7.14837C32.987 7.09597 32.6688 7.07044 32.6181 7.02609C32.1741 6.64725 32.9357 6.13693 33.0685 6.05228C33.5725 5.72397 33.1745 5.51417 33.3864 5.24793C33.5984 4.9834 33.7924 5.42514 33.9356 5.1077C34.2322 4.44714 34.2702 3.57359 34.3619 2.88362C34.3963 2.61023 33.9521 2.74966 33.9472 2.70944C33.9463 2.69826 33.9457 2.6871 33.9452 2.67597C33.9739 2.10377 34.5041 1.65623 33.7717 1.15239C36.0231 1.28897 33.558 0.815228 34.3985 0.00878134C34.4238 -0.0113359 34.5112 0.000657342 34.5946 0.0703408C34.6835 0.138827 34.7057 0.283622 34.7441 0.418155C34.7764 0.558905 34.9719 0.644761 35.1333 0.645451C35.2913 0.653759 35.3915 0.653282 35.4249 0.673051C35.5399 0.770271 35.1123 1.0585 35.2671 1.42617C35.3004 1.51726 36.147 2.16589 36.1927 2.23514C36.5413 2.78839 35.0117 2.5386 34.9225 2.54673C34.6315 2.57706 34.5124 2.66922 34.4892 2.78768L34.4971 2.73784C34.468 3.01286 34.9559 3.37595 34.9951 3.48491C35.2525 4.19577 34.9786 4.75007 35.1623 5.33763C35.281 5.72083 36.2897 5.8476 36.2342 6.13054C36.0524 7.0717 34.6139 7.31253 35.7824 8.2956C36.0325 8.50511 37.1506 8.37716 36.2411 9.01375C36.1836 9.05326 35.3598 9.52556 35.8522 9.8451C35.9143 9.88496 36.2376 9.89747 36.2627 9.94723C36.4251 10.2788 36.1596 10.4871 36.2724 10.8454C36.3854 11.2029 36.5601 11.6301 36.4456 12.0298C36.3769 12.2706 35.7727 12.5788 35.625 12.6966C35.1992 13.0292 35.8991 13.3793 35.3871 13.5894C34.8728 13.8058 34.0804 13.4027 33.7552 13.9653C34.5961 13.9704 35.4596 14.0003 36.3055 14.0148C36.2998 15.1834 36.0864 16.347 36.2259 17.5087C36.2441 17.6521 36.681 17.4653 36.7123 17.6166C36.843 18.2522 36.5855 18.8502 36.8022 19.4968C36.972 19.9973 37.531 20.4771 37.7422 20.9713C36.8507 21.4595 37.3249 22.1862 37.369 22.7595C37.3847 22.9618 37.1318 23.0077 37.0838 23.1675C36.9125 23.771 37.677 23.3167 37.8421 23.4259C38.5506 23.8787 36.7062 24.4375 36.9744 25.1654C36.9883 25.208 38.1128 25.3612 38.1935 25.3985C38.7197 25.6602 37.876 25.5766 37.8888 25.8504C37.9142 26.3484 37.8026 26.7579 38.291 27.1716C38.3862 27.2511 38.7416 27.3295 38.8753 27.5076C38.9497 27.6128 38.966 27.7467 38.8588 27.9226C38.8175 27.9908 38.4954 28.0997 38.4918 28.1419C38.4522 28.8958 39.4395 28.4967 39.9225 28.7131C40.4056 28.9302 39.9589 29.7643 39.8105 29.958C39.4281 30.4625 39.5004 29.8252 39.4442 29.8302C38.7759 29.893 39.0459 30.2501 39.1246 30.5765C38.1808 31.0262 38.4183 31.4285 39.21 30.913C39.2962 30.856 39.1065 30.6565 39.1246 30.5765C40.182 30.4473 40.4995 30.8631 39.8357 31.7516C39.5247 32.1677 38.9459 32.1446 39.4336 32.8023C39.6549 33.1009 40.2615 32.6905 40.5666 32.9051C41.262 33.3934 41.0202 34.5209 41.4187 35.1552C41.563 35.3846 41.8159 34.9854 41.9271 35.1367C42.2232 35.5373 42.1298 36.0461 42.4714 36.4243C42.5027 36.4581 42.8318 36.1882 42.8995 36.3219C43.4212 37.3304 43.6107 38.3277 44.1426 39.362C44.4007 39.8668 45.0741 40.6191 45.3239 41.1291C45.7467 42.0083 45.9022 43.339 46.5088 43.9055C46.9004 44.2722 47.1557 43.9222 47.5097 43.9197C48.1831 43.9012 47.9022 45.0541 47.8671 45.2338C47.8662 45.2421 47.5066 44.9879 47.5031 45.3004C47.268 45.6979 47.8634 45.2325 47.8671 45.2338C47.8359 45.353 48.3629 46.018 48.5396 46.0612C48.6334 46.0881 48.8587 45.7654 48.9014 45.7835C49.9166 46.2205 50.6661 46.5644 51.3518 46.9872C51.3629 46.9992 51.2038 47.4067 51.234 47.4304C51.6073 47.7274 52.0019 47.4096 52.3307 47.1316C52.345 47.0856 52.3576 47.0408 52.3687 46.9994C52.4528 46.6825 52.4271 46.7865 52.6522 47.5051C52.6272 47.4914 52.603 47.4941 52.4477 47.6163C52.3644 47.689 52.2533 47.7595 51.9896 48.0773C51.8619 48.2479 51.6629 48.4772 51.4731 49.04C51.2655 49.5565 51.2699 50.733 51.7541 51.449C52.1356 52.0415 52.4168 52.1846 52.5896 52.3021C52.7672 52.4079 52.8751 52.4439 52.9582 52.4685C53.1178 52.5111 53.1817 52.4966 53.224 52.4801C53.3031 52.4424 53.2884 52.3775 53.2714 52.3258C53.145 52.1068 53.0309 52.9569 53.0272 52.9728C52.5519 53.4496 52.1089 53.1495 51.4098 53.1927C51.3081 53.2056 51.2036 53.2218 51.0958 53.2427C50.5505 53.3463 49.5252 53.7446 48.9742 53.9896C48.543 54.1831 48.2136 54.0661 47.8338 54.3025C47.7824 54.3343 47.9393 54.6838 47.9261 54.7026C47.5845 55.2665 47.5597 54.3135 47.4199 54.1806C46.9114 53.6981 46.6112 53.4489 46.0938 53.8904C45.974 53.9918 45.9495 55.3855 45.7272 55.532C45.4376 55.7201 45.4223 55.2265 45.1239 55.4359C45.0981 55.4535 45.1878 55.7341 44.9796 55.7831C44.0181 56.0131 42.9485 56.1723 42.0083 56.5283C41.8807 56.5756 42.199 56.9599 42.0165 57.0359C41.1666 57.3898 40.2383 57.7214 39.3609 57.8528C39.1454 57.8834 39.1396 57.5308 39.0595 57.4592C38.5613 57.0309 38.5341 57.9779 38.4865 58.0177C37.2652 59.0255 35.8789 58.8957 34.9735 60.0088C34.9133 60.0774 35.0815 61.1067 34.4076 60.6591C34.3665 60.6251 33.6424 60.1928 33.8759 60.733C33.8927 60.765 34.2735 60.9701 34.0809 61.1009C33.8812 61.2405 33.8679 61.6654 33.3392 61.6126C33.178 61.5873 32.3656 61.3382 32.7618 61.9183C32.7701 61.9871 33.8852 62.952 32.9434 62.6278C32.8224 62.5912 32.2357 62.3116 32.1294 62.4246C32.1068 62.4363 32.1301 62.4829 32.2316 62.5757C32.3165 62.651 32.5632 62.655 32.6675 62.8072C32.8301 63.0339 32.4659 63.338 32.8608 63.8193C32.9295 63.9078 33.5909 64.2988 33.0189 64.481C32.9291 64.5105 32.5902 64.3861 32.5329 64.5198C32.2586 65.1648 32.4239 65.9528 32.1238 66.6981C32.0184 66.9634 31.4608 66.7809 31.2881 67.0586C31.1156 67.3339 30.9312 67.9136 31.1723 68.2363C31.4134 68.5589 32.3393 68.279 32.3842 68.7428C32.5803 70.7636 31.9406 72.7992 31.6792 74.9028C31.6399 75.2158 31.9869 74.9839 31.9507 75.4489C31.9424 75.5551 31.9344 75.6663 31.9266 75.782C31.8961 76.0767 31.9137 76.2703 31.7471 77.0367C31.72 77.1476 31.6895 77.2687 31.6261 77.4617C31.5947 77.555 31.5623 77.6497 31.4965 77.8087C31.4242 77.9748 31.386 78.0766 31.2078 78.3877C31.0198 78.6769 30.8962 78.9693 30.1874 79.5974C29.7784 80.0886 27.6143 81.0495 26.1013 80.5337C24.4945 80.0445 24.1817 79.4967 23.8019 79.1427C23.5306 78.8427 23.3476 78.5564 23.2625 78.416C22.8834 77.7564 22.8625 77.5868 22.7777 77.3736C22.7093 77.1761 22.6714 77.0459 22.6372 76.9262C22.4026 76.0551 22.3404 75.6114 22.2579 75.0607C22.0965 73.8881 22.0499 72.7906 22.3064 72.0338C22.7019 70.8616 23.3107 72.1861 23.4162 71.3146C23.4654 70.8939 22.3573 70.6163 22.31 70.5272C21.835 69.6494 22.1886 68.9409 21.8925 68.1552C21.831 67.9941 21.443 68.2387 21.3953 68.1018C21.2292 67.6386 21.31 67.1028 21.1719 66.664C21.109 66.4684 20.8 66.5807 20.7808 66.3938C20.7304 65.9478 20.7647 65.5385 20.9411 65.04C20.9568 64.9937 21.4215 65.1413 21.3446 64.8177C21.2198 64.2992 21.3033 63.5668 20.8028 63.1062C20.6524 62.9697 19.9547 63.2287 20.3006 62.6966C20.3722 62.5865 21.2424 62.3414 20.3584 62.2272C20.2083 62.1953 18.9785 61.9847 19.4366 61.3986C19.5579 61.2427 20.1071 60.7004 19.9074 60.5697C19.8785 60.5543 19.5748 60.8371 19.4627 60.7096C19.0748 60.2605 18.8032 59.7324 18.3771 59.3445C18.2635 59.2435 18.0507 59.6601 17.8953 59.5075C17.47 59.0917 17.1013 58.4975 16.799 58.0228C16.688 57.8471 17.0264 57.6967 17.0425 57.6601C17.0632 57.6087 17.0771 57.5649 17.0852 57.528C17.1687 57.1239 16.5967 57.541 16.5123 57.5245C15.9336 57.3957 15.8455 56.8353 15.3499 56.5978C15.2153 56.5334 15.0696 56.9115 15.0256 56.9226C14.5847 57.0257 15.1758 56.5844 15.0621 56.4086C14.7403 55.9126 14.185 55.5897 13.6558 55.3279C13.4615 55.2326 13.4338 55.7459 13.2634 55.6571C12.2504 55.1404 11.1912 54.5287 10.2386 53.7786C10.0578 53.6359 10.3394 53.3851 10.3324 53.2927C10.2852 52.6465 9.5222 53.1252 9.39105 53.1434C8.79951 53.229 8.74848 52.8643 8.32146 52.7302C7.2658 52.3991 6.12456 51.9198 4.92522 51.3332C4.31708 51.031 3.73653 50.7374 2.95277 50.2562C2.73316 50.119 2.55809 50.0067 2.25554 49.7871C1.98529 49.5666 1.66942 49.4102 0.992969 48.5766C0.811365 48.3385 0.613095 48.0423 0.428704 47.6431C0.210023 47.1798 -0.0372028 46.3879 0.00466776 45.514C0.00896692 43.6681 1.5376 42.1846 1.91697 41.9862C2.20927 41.7766 2.46863 41.6367 2.69818 41.5285C2.92249 41.425 3.02341 41.3893 3.16874 41.3369C3.42852 41.2449 3.70221 41.1753 3.84927 41.1443C4.08972 41.0924 4.30614 41.0589 4.51523 41.0329C7.26633 40.7913 9.25957 40.847 11.5327 40.2512C11.6808 40.2123 11.4276 39.7932 11.5521 39.754C13.1492 39.2718 14.7186 38.9705 15.8847 38.2442C15.9782 38.1862 15.6434 37.8611 15.7803 37.7571C16.058 37.5415 16.4092 37.3632 16.7281 37.3139C16.8852 37.2876 16.9391 37.7109 17.0977 37.6739C17.4704 37.5852 17.7683 37.3722 17.916 37.1129C17.9746 37.0049 17.5291 36.8221 17.6201 36.7157C17.7417 36.5671 17.8292 36.4289 17.8995 36.3005C18.6921 34.934 19.495 33.4904 20.6583 32.1284C20.7585 32.0114 21.6433 32.2851 21.6228 31.9152C21.4029 31.7851 21.1314 31.6595 20.8898 31.5346C22.095 28.6097 23.5978 25.759 24.8181 22.7177C24.8694 22.5894 24.3307 22.6385 24.4275 22.3894C24.9862 20.9485 25.3832 19.4922 26.3811 18.16C26.4794 18.0275 27.2547 18.3954 27.2922 17.9125C27.2981 17.8273 27.4302 17.1255 27.3168 16.8922C27.2988 16.8596 26.8804 16.8453 26.9458 16.6285C27.3337 15.3687 27.8806 14.0954 28.5485 12.9289C28.6567 12.7417 28.9822 13.096 29.0629 12.9637C29.6331 12.0198 29.7164 10.8026 30.4214 9.95345C30.8953 9.38436 31.502 9.87251 32.3062 9.76097C32.4199 9.74475 32.5769 9.34478 32.9808 9.46321C33.9969 9.75892 35.0208 10.3366 36.112 10.6286C36.3471 10.6912 36.2884 10.0685 36.7305 10.5798C36.7599 10.6146 36.8068 11.0696 36.9605 11.2327C37.0667 11.3456 37.5126 11.3651 37.6306 11.5609C37.7482 11.7575 37.3575 11.7892 37.4735 12.0841C37.5917 12.3807 38.0861 12.4398 37.9806 12.9163ZM52.0573 51.4653C51.6814 51.1067 51.8936 52.5881 52.1349 52.1907C52.1461 52.17 52.0754 51.4831 52.0573 51.4653ZM34.9743 16.4102C34.3473 16.9396 35.3416 17.1967 35.824 16.8223C36.3074 16.4549 35.1649 16.2524 34.9743 16.4102ZM34.3976 11.37C33.8667 11.9368 35.9861 12.052 35.5682 11.4436C35.5447 11.4083 34.4285 11.3372 34.3976 11.37ZM31.9377 11.4388C31.9582 11.4402 32.078 11.1561 32.0618 11.1428C31.6675 10.8315 31.4283 11.3996 31.9377 11.4388ZM34.1451 6.27517C33.8439 6.43304 34.1341 6.97756 34.507 6.78146C34.8065 6.62566 34.5192 6.08054 34.1451 6.27517ZM33.2931 56.4623C33.2755 56.4469 33.0846 56.5531 33.1603 56.6542C33.4026 56.9791 33.582 56.7195 33.2931 56.4623ZM34.3052 2.53852C34.3823 1.27919 36.0992 0.401104 35.9349 1.85905C35.9026 2.11716 35.3682 1.30948 35.2153 1.64107C34.9363 2.23745 36.035 2.62979 35.4459 3.23418C35.3381 3.34321 34.2973 2.61055 34.3027 2.53624C34.3036 2.537 34.3044 2.53776 34.3052 2.53852ZM51.6047 49.7158C51.5943 49.6962 51.2884 49.7298 51.2852 49.7515C51.217 50.2452 51.8024 50.1821 51.6047 49.7158ZM27.2536 67.3315C27.2102 67.3442 27.1261 68.0545 27.1638 68.0792C27.9156 68.4953 28.0871 67.0708 27.2536 67.3315ZM40.4839 41.2403C39.9033 41.1613 39.6651 40.8179 40.0792 40.3055C40.203 40.6231 40.3528 40.9262 40.4839 41.2403Z" fill="#506916"/>
</svg>
