<svg width="54" height="68" viewBox="0 0 54 68" fill="none" xmlns="http://www.w3.org/2000/svg">
<path d="M29.9747 9.0419C30.0316 10.0902 29.7532 11.3584 29.4361 12.3046C29.338 12.5964 29.0953 12.4093 29.0152 12.6092C28.8575 13.0069 28.933 13.3954 28.7512 13.7767C28.6899 13.9013 28.2995 13.6756 28.2447 13.8072C27.9459 14.5336 27.9334 15.2559 27.708 15.9972C26.5899 19.6407 25.5459 23.1927 24.0361 26.7732C23.7205 27.5182 23.2282 28.3133 22.7986 29.1104C22.4972 29.6931 22.1782 30.2422 21.894 30.7773C21.8026 30.9482 22.171 31.0608 22.1753 31.1086C22.2087 31.8687 21.7185 31.2713 21.4146 31.5035C20.1915 32.427 18.9852 33.3326 17.9267 34.1079C17.4757 34.4345 18.3187 34.8035 17.6221 34.7149C17.5752 34.7084 17.5145 34.2977 17.3626 34.3308C17.0209 34.4085 16.4787 34.7382 16.2293 34.8078C15.7512 34.9413 15.6786 34.9726 15.2459 35.1257C14.651 35.3295 13.8971 35.3516 13.2911 35.5928C13.1608 35.6457 13.4379 35.9909 13.2343 36.1108C13.03 36.2322 12.4406 36.3257 12.2282 36.2697C12.016 36.2151 12.039 35.8891 11.9912 35.8248C11.602 35.2811 11.103 36.2208 11.0138 36.2543C9.51705 36.8454 8.13454 36.4657 6.77389 36.5533C6.47222 36.5734 6.18655 36.6044 5.91082 36.6441C5.7795 36.6634 5.64154 36.6861 5.54221 36.7082C5.43935 36.7287 5.3298 36.7643 5.42222 36.7531C5.37759 36.7727 5.37617 36.7857 5.43683 36.766C5.47433 36.7523 5.55374 36.7185 5.66795 36.6397C5.72601 36.5991 5.78934 36.5505 5.86792 36.4752C5.97357 36.3728 6.09492 36.2297 6.20128 36.038C6.42545 35.6633 6.50781 35.06 6.40364 34.6515C6.35916 34.4469 6.2854 34.2774 6.22659 34.1674C6.17917 34.0781 6.1334 34.0092 6.09338 33.9547C5.92272 33.7364 5.89668 33.746 5.889 33.7369C5.89325 33.7527 6.08331 33.8898 6.25826 34.0023C6.44997 34.1254 6.64773 34.2475 6.86229 34.3709C7.28456 34.6142 7.76453 34.8565 8.27103 35.0352C8.38215 35.075 8.42523 34.5854 8.56156 34.6331C10.0022 35.135 11.4418 35.7193 12.7981 36.5848C12.9351 36.6724 12.5946 36.9848 12.7221 37.0952C13.4988 37.7577 14.5917 39.0778 15.819 37.6387C16.4017 37.957 17.1181 38.3454 17.5107 38.9205C17.7632 39.291 17.2393 39.5488 17.745 39.5674C17.8589 39.5725 17.8983 39.1558 18.0575 39.1911C18.7281 39.3403 19.3355 39.7751 20.0302 39.9011C20.1719 39.9259 20.3003 39.5941 20.3645 39.5553C20.8972 39.2477 20.9899 40.2659 21.0623 40.3772C21.6322 41.2183 22.2961 41.3997 23.0168 41.8852C23.1816 41.9977 23.2469 41.4703 23.4168 41.5662C24.3116 42.0824 25.1788 42.7932 25.8087 43.7069C25.9492 43.9137 25.5043 44.0428 25.5544 44.1545C25.6774 44.4307 25.9282 44.403 26.1674 44.4244C26.346 44.4406 26.5161 44.4831 26.5945 44.6889C26.6333 44.7893 26.3283 44.9644 26.3106 45.0028C26.0184 45.5892 26.8329 45.2658 26.8959 45.3196C27.6694 45.9532 27.2125 46.9273 27.6898 47.6379C27.7484 47.7268 28.0455 47.3228 28.1876 47.5899C29.1455 49.3919 29.3993 51.5591 29.1208 53.4048C29.0786 53.6932 28.7409 53.5012 28.7011 53.5213C28.0778 53.8293 28.9303 53.9873 28.9638 54.0822C29.2044 54.8179 28.4658 55.4552 29.4506 55.9946C29.1064 58.0947 28.889 60.3741 28.797 61.8705C28.7951 62.0521 28.8 62.1978 28.7812 62.2268C28.7536 62.2313 28.8023 62.2139 28.5212 61.9069C28.3607 61.7393 27.9835 61.5169 27.5687 61.5366C27.3785 61.5414 27.2064 61.5971 27.1214 61.6375C27.04 61.6753 26.983 61.7137 26.9426 61.7457C26.7874 61.8809 26.8549 61.8754 26.8875 61.862C26.9275 61.8481 26.9855 61.8097 27.0543 61.7515C27.1747 61.6624 27.3289 61.5143 27.4757 61.384C27.5015 61.3588 27.839 61.6149 27.8896 61.562C28.4959 60.9169 27.8353 60.7623 27.3687 59.9056C27.2449 59.7027 28.3095 59.7017 28.3865 59.7029C28.681 59.6872 29.1829 60.0842 29.2484 60.0632C29.7725 59.8768 27.8858 59.0455 28.1067 58.5705C28.1169 58.5567 28.431 58.7809 28.4842 58.756C28.6503 58.6799 28.5747 58.4854 28.751 58.4161C29.1549 58.2651 30.1134 58.5788 29.7881 57.8998C29.7459 57.8119 28.6456 57.4032 28.9049 56.9833C29.0074 56.8185 29.3624 56.0297 29.536 55.8484C29.71 55.6643 29.9758 55.9789 29.998 55.9704C30.7323 55.6042 30.8081 55.9195 31.611 55.9607C32.4105 56.0048 30.8049 55.2974 30.6902 55.0903C30.577 54.8809 31.1584 54.6473 31.3395 54.6096C31.52 54.5722 31.6656 54.8113 31.7849 54.7571C32.5689 54.4 31.1545 54.0865 31.0154 53.7544C30.6909 52.963 32.0373 53.2129 32.3875 52.8562C32.4832 52.7582 32.1724 52.7051 32.2076 52.5883C32.353 52.1259 32.8429 52.0938 32.8093 51.4422C32.8015 51.3392 32.3812 50.5408 33.0204 50.6145C33.1115 50.6267 33.3196 50.899 33.491 50.7718C33.7457 50.5834 34.113 50.1784 34.217 49.8562C34.2963 49.6141 33.7011 49.52 34.0188 49.3717C34.1599 49.3078 34.2582 49.6951 34.5006 49.5626C34.737 49.4344 35.1314 48.9247 35.2817 48.7393C35.4343 48.5472 35.0427 48.3807 35.0348 48.3481C34.9968 48.1513 35.1865 47.6581 35.2186 47.6281C35.5997 47.2118 36.0365 46.8524 36.505 46.5518C37.8269 45.716 39.2376 45.2254 40.5147 44.388C40.6501 44.3005 40.3632 43.9671 40.3818 43.9498C40.8015 43.5426 40.9131 44.7522 41.4134 44.9324C40.9916 44.1743 41.259 44.2177 41.5712 43.9733C41.7209 43.8556 41.4933 43.5899 41.4947 43.5516C41.5482 42.9706 41.9907 43.4993 42.0856 43.6054C42.444 43.9922 42.406 43.3767 42.6435 43.639C42.8774 43.9002 42.7973 44.4541 43.1277 44.3189C43.1121 43.9928 42.5651 43.3345 42.7819 43.1109C43.6157 42.2415 45.7562 42.2948 46.5928 42.2082C47.4426 42.1027 47.7081 42.01 48.2173 42.0517C49.1308 42.1449 48.7362 41.5866 49.3001 41.264C49.3629 41.2297 49.4158 41.2173 49.4605 41.2226C49.5988 41.2753 49.6822 42.4764 49.7671 42.7515C49.8871 43.0547 49.9395 42.7121 50.0859 42.8398C50.1714 42.8991 50.1827 43.0002 50.1962 43.0856C50.2164 43.1625 50.2204 43.2625 50.4811 43.1478C50.5893 43.1028 50.8242 42.8727 50.8498 42.5608C50.8763 42.2422 50.7247 42.0594 50.5898 41.9528C50.3187 41.775 50.0333 41.8012 49.8777 41.8658C49.2253 42.1842 48.8276 42.8403 48.7235 42.3463C48.7146 42.3151 49.059 42.1108 49.0086 42.0033C48.5619 41.1381 47.6918 40.4463 47.0593 39.6209C46.9704 39.5058 47.3342 39.2397 47.2851 39.1685C46.7752 38.4286 46.5698 39.1911 45.7098 39.5542C46.4485 38.761 46.6386 38.0763 46.1304 37.6802C45.8227 37.4395 45.5917 37.8558 45.1886 37.965C45.0671 37.9979 45.0461 37.5732 44.8713 37.718C44.2974 38.1892 44.0078 38.992 43.671 38.3201C43.6571 38.2898 43.9757 38.0356 43.9099 37.9537C43.4869 37.4211 42.9549 37.9675 42.33 37.5776C41.839 37.2718 41.3564 36.2559 40.9275 35.7537C41.7539 34.8676 41.1402 34.6742 40.3699 35.0846C40.1022 34.7734 39.7584 34.4704 39.5667 34.0989C39.5574 34.0808 39.5485 34.0626 39.54 34.0442C39.4774 33.9099 39.8061 33.7544 39.8233 33.7161C40.1057 33.1287 39.3668 33.5079 39.2823 33.4539C38.4098 32.8587 38.4562 31.8493 37.4459 31.3701C37.4106 31.354 36.6618 31.747 37.0528 31.2051C37.0813 31.1701 37.5703 31.2395 37.366 30.842C37.1585 30.4397 37.1557 29.5044 36.5364 29.1331C36.387 29.0458 35.6013 28.9964 35.9566 28.4916C36.0054 28.4244 36.243 28.3625 36.3408 28.2537C36.653 27.9077 35.8345 28.1647 36.4071 27.6712C36.9797 27.1768 37.31 26.5808 36.6303 26.215C36.6101 26.2034 35.9294 26.3168 35.8713 26.1337C35.7788 25.8418 35.7651 25.3909 35.6584 25.0928C35.607 24.9503 35.2419 25.1775 35.2261 25.155C34.6727 24.2512 34.8172 23.4316 34.6968 22.3359C34.6762 22.1384 33.9795 21.7086 34.3323 21.225C34.7205 20.6989 36.8172 20.6669 36.1413 19.8547C35.8744 19.5366 33.2115 19.5376 34.4173 18.5938C33.8492 17.3025 34.3607 15.953 33.7321 14.6547C33.7044 14.5991 32.9581 14.4792 32.9523 14.3328C32.9451 14.1147 33.2719 13.9653 33.2781 13.806C33.3149 13.1579 32.9699 12.586 32.9614 11.9634C32.9573 11.7244 33.315 11.7758 33.3111 11.4977C33.3059 11.2069 32.8295 11.0709 33.0199 10.6634C33.0581 10.5847 33.1491 10.5026 33.2642 10.4176C33.5851 10.1629 34.0941 9.86588 34.1406 9.56775C33.2108 9.66388 33.1989 9.39831 32.8939 8.96599C32.8349 8.88323 32.5247 9.02049 32.4801 8.98355C32.2916 8.83393 32.538 8.64061 32.3356 8.50144C32.2869 8.46756 31.9702 8.50747 31.9125 8.48205C31.41 8.26825 32.0621 7.7173 32.1764 7.62356C32.6089 7.26347 32.1797 7.17507 32.3375 6.92151C32.4957 6.66978 32.7685 6.98477 32.8495 6.70431C32.9721 6.28085 32.9389 5.79469 32.9041 5.34475C32.8912 5.17848 32.8779 5.01703 32.8712 4.86587C32.8596 4.6425 32.445 4.82349 32.4335 4.79224C32.2935 4.32923 32.7255 3.84012 31.8676 3.612C34.0493 3.20854 31.6427 3.33644 32.0664 2.64738C32.1008 2.59317 33.1369 2.50778 33.2934 2.70365C33.4498 2.89876 33.1335 3.21006 33.381 3.47713C33.4387 3.54241 34.4257 3.86899 34.4872 3.91312C34.9657 4.27261 33.4224 4.41582 33.3384 4.44327C32.4345 4.74042 33.5139 5.12809 33.5962 5.23459C33.6081 5.25072 33.6194 5.2668 33.6301 5.28283C33.9619 5.77337 33.8146 6.23726 34.0946 6.65216C34.2824 6.93226 35.2942 6.83561 35.2925 7.07127C35.2896 7.86028 33.9246 8.32201 35.2408 8.92666C35.5213 9.05928 36.6037 8.75303 35.8103 9.46662C35.7652 9.50796 35.1547 9.95422 35.4283 10.199C35.4286 10.206 35.4314 10.2269 35.4316 10.234C35.4599 10.2577 35.4983 10.2796 35.5483 10.2989C35.6144 10.3244 35.9367 10.2962 35.9672 10.3347C36.1657 10.5965 35.9241 10.8021 36.0722 11.0898C36.2204 11.3784 36.4345 11.7222 36.3545 12.06C36.307 12.2678 35.7307 12.5828 35.5927 12.6918C35.195 13.0061 35.9175 13.2302 35.4222 13.449C34.9249 13.6735 34.1081 13.4121 33.8227 13.9046C34.6605 13.8342 35.5226 13.7821 36.3661 13.7197C36.4377 14.6854 36.2833 15.6617 36.4605 16.6109C36.4833 16.7279 36.9125 16.5415 36.9485 16.6645C37.0991 17.1845 36.8559 17.6961 37.0794 18.2183C37.2545 18.6232 37.8124 18.99 38.0189 19.39C37.1312 19.8502 37.5922 20.4293 37.6192 20.9078C37.629 21.0765 37.3771 21.1272 37.3246 21.2636C37.135 21.7783 37.9066 21.3612 38.0663 21.4456C38.7494 21.7969 36.9031 22.3447 37.1263 22.9437C37.1379 22.9786 38.2358 23.0676 38.3125 23.0974C38.8128 23.3023 37.9884 23.2582 37.982 23.4894C37.9715 23.9108 37.8289 24.2583 38.269 24.5987C38.3992 24.6993 39.108 24.7764 38.7395 25.1944C38.6915 25.2497 38.3684 25.354 38.36 25.3873C38.2374 25.9825 39.2337 25.5984 39.6719 25.7132C40.1091 25.8255 39.6088 26.508 39.4549 26.6797C39.0535 27.12 39.1672 26.6139 39.1137 26.6244C38.4678 26.7477 38.7004 27.001 38.7578 27.2504C37.8259 27.7246 38.0403 28.028 38.822 27.5073C38.9072 27.4505 38.7357 27.3164 38.7578 27.2504C39.7807 27.019 40.0456 27.2697 39.387 28.08C39.0809 28.4613 38.5264 28.5412 38.9887 28.9906C39.1995 29.1921 39.7747 28.7476 40.0613 28.8545C40.7104 29.0894 40.5054 30.0235 40.9122 30.4218C41.0574 30.5629 41.2695 30.1793 41.3788 30.2658C41.6681 30.4904 41.6168 30.9157 41.9557 31.1011C41.9863 31.1169 42.2623 30.8017 42.3326 30.882C42.4795 31.0456 42.6064 31.2146 42.726 31.3872C42.9952 31.7892 43.2776 32.2756 43.7481 32.7166C44.0579 33.0098 44.8067 33.3563 45.1392 33.6884C45.7112 34.2632 46.1577 35.3732 46.8268 35.7037C47.2622 35.9208 47.4281 35.5283 47.7624 35.4306C48.4061 35.2377 48.3782 36.4421 48.3648 36.622C48.3623 36.6264 47.9733 36.4518 48.0211 36.7544C47.8549 37.182 48.3604 36.6211 48.3648 36.622C48.3559 36.7375 48.9708 37.3264 49.1523 37.3684C49.2531 37.392 49.4508 37.0512 49.4989 37.0695C50.6658 37.5895 51.503 37.8876 52.8401 39.7835C52.8626 39.8282 52.4674 40.0263 52.5208 40.1237C52.5951 40.2648 52.6889 40.4294 52.7945 40.6391C52.8458 40.7416 52.8974 40.8506 52.9478 40.9693C53.0058 41.1056 53.0694 41.2764 53.1208 41.4597C53.3959 42.0288 53.2415 43.9638 52.2634 44.7928C51.9129 45.1555 51.5491 45.3879 51.2546 45.5485C51.0219 45.6824 50.8109 45.7819 50.6148 45.8659C50.2329 46.0271 50.0268 46.1235 49.7483 46.219C49.6962 46.2773 49.6409 46.3345 49.5812 46.3876C49.2036 46.7342 48.8687 46.6719 48.4923 45.9693C48.1692 46.1112 47.6202 45.8754 47.2856 45.7417C46.9502 45.6076 47.0996 46.4475 47.0794 46.469C46.4395 47.1726 45.8932 46.8206 45.0794 47.0105C44.694 47.0976 44.0107 47.4888 43.6649 47.7412C43.3907 47.9402 43.1268 47.8413 42.9067 48.0868C42.877 48.1198 43.0775 48.4436 43.0725 48.4621C42.9721 49.0135 42.7093 48.1131 42.5735 47.9954C42.0794 47.57 41.7741 47.3635 41.5111 47.8289C41.4469 47.9375 41.8459 49.2421 41.7418 49.3946C41.5974 49.5954 41.4236 49.1424 41.2786 49.3669C41.2661 49.3859 41.4245 49.6338 41.2938 49.7006C40.777 49.969 40.1858 50.2217 39.6935 50.5875C39.6374 50.6279 39.5815 50.674 39.5272 50.7261C39.4752 50.7748 39.8482 51.0699 39.7822 51.1433C39.4749 51.4855 39.0481 51.9234 38.4977 52.2687C38.362 52.3516 38.1621 52.0765 38.0654 52.0424C37.4716 51.8461 37.9691 52.61 37.9558 52.6566C37.6063 53.8401 36.4401 54.2672 36.1038 55.6266C36.0854 55.7029 36.6244 56.6278 35.8137 56.483C35.7602 56.4723 34.9293 56.3251 35.3132 56.7793C35.3375 56.8073 35.777 56.8574 35.6136 57.0823C35.4509 57.3062 35.4953 57.831 34.9195 57.9713C34.7371 58.0174 33.8863 57.931 34.3027 58.5385C34.3307 58.5824 35.3883 59.7187 34.4022 59.4728C34.2399 59.4325 33.2998 58.9519 33.5979 59.5884C33.6566 59.71 33.935 59.6706 33.973 59.9354C34.0298 60.3473 33.5829 60.6377 33.8204 61.2405C33.8636 61.3445 34.3768 61.9383 33.769 61.9544C33.6742 61.9559 33.389 61.735 33.2938 61.8448C32.8344 62.3747 32.7477 63.1155 32.1445 63.7315C31.9225 63.9617 31.4977 63.5536 31.2151 63.7443C30.8578 63.9974 30.6411 64.3497 29.8498 65.418C29.5848 65.7211 29.3717 65.9548 29.2926 66.1331C29.2066 66.3132 29.2469 66.4463 29.2486 66.5927C29.2204 66.741 29.2985 66.8939 28.654 67.1749C28.3406 67.2978 27.8376 67.4536 27.0334 67.3968C26.2083 67.3397 25.236 66.9728 24.5083 66.338C24.1986 66.0725 23.9642 65.8048 23.78 65.5591C23.6539 65.3923 23.552 65.2368 23.4644 65.0897C23.2902 64.7959 23.1748 64.5412 23.0845 64.3147C22.9287 63.9158 22.8758 63.7197 22.8112 63.4679C22.7482 63.2056 22.7237 63.0791 22.6951 62.915C22.6684 62.7582 22.6481 62.6061 22.6321 62.455C22.4704 59.9602 23.1219 58.9654 23.2848 57.6301C23.32 57.3965 22.978 57.5563 23.0049 57.2192C23.1193 55.9423 22.883 54.0872 23.4817 53.1804C23.9689 52.4129 24.4718 53.2958 24.6416 52.7014C24.7189 52.4003 23.6314 52.2562 23.59 52.2084C23.1658 51.6852 23.5316 51.2102 23.2455 50.773C23.1864 50.6867 22.8096 50.9106 22.7647 50.8397C22.6098 50.6064 22.6845 50.2777 22.5457 50.0621C22.4828 49.9675 22.1977 50.1283 22.1772 50.0301C22.1227 49.7965 22.1438 49.5565 22.2708 49.1894C22.2808 49.1537 22.7084 49.0657 22.614 48.8937C22.4775 48.648 22.4556 48.2087 22.0872 48.0669C22.051 48.056 22.0107 48.0484 21.9658 48.0452C21.8243 48.0321 21.2996 48.5593 21.5032 48.0369C21.5439 47.9277 22.2065 47.3166 21.4692 47.6909C21.3387 47.7434 20.3212 48.2453 20.533 47.5639C20.5897 47.3838 20.8802 46.6843 20.6792 46.6819C20.651 46.6843 20.4867 47.0597 20.3572 47.0151C19.9001 46.8495 19.4955 46.537 18.9886 46.3797C18.8536 46.3391 18.815 46.7989 18.6223 46.7284C18.088 46.5329 17.5132 46.1004 17.0548 45.7216C16.8856 45.5808 17.1733 45.3416 17.1765 45.3013C17.222 44.6423 16.7186 45.3097 16.6235 45.3161C16.0289 45.3431 15.8292 44.8229 15.336 44.7094C15.2004 44.6774 15.1264 45.0739 15.0872 45.0944C14.6913 45.2893 15.1715 44.7351 15.0407 44.591C14.6742 44.1853 14.1398 43.9875 13.6448 43.8331C13.4628 43.777 13.4827 44.2778 13.322 44.223C12.3658 43.9063 11.4007 43.4757 10.5503 42.8785C10.391 42.7655 10.6278 42.4824 10.6196 42.3936C10.5608 41.7721 9.91157 42.3393 9.80055 42.3747C9.28939 42.5343 9.23801 42.1844 8.87064 42.1069C6.99138 41.6745 5.10936 40.8843 2.84081 39.5547C2.71318 39.4763 2.5849 39.3938 2.45334 39.3037C2.32452 39.2148 2.1847 39.1165 1.98913 38.9632C1.65581 38.6213 1.11794 38.509 0.303698 36.778C-0.184844 35.7609 -0.0985899 33.7937 0.668923 32.7229C1.49745 31.538 1.87486 31.4644 2.30586 31.1741C2.50005 31.0636 2.72986 30.9579 2.83612 30.9156C2.95556 30.8667 3.06813 30.8256 3.17559 30.7897C3.39043 30.7181 3.58525 30.6665 3.77074 30.6241C4.1104 30.5432 4.37067 30.5141 4.52607 30.5003C4.70511 30.4839 4.85287 30.4771 4.97699 30.4736C5.24974 30.4648 5.44428 30.4689 5.65164 30.4713C6.05551 30.4776 6.40465 30.4886 6.7571 30.4902C7.45834 30.494 8.12253 30.4662 8.81565 30.359C8.93633 30.3405 8.76306 29.892 8.86538 29.8701C10.1851 29.6085 11.4632 29.5567 12.5345 29.0835C12.621 29.0457 12.3623 28.6652 12.4923 28.5913C12.7564 28.437 13.0981 28.3377 13.4073 28.3598C13.5594 28.3691 13.5362 28.7899 13.6901 28.7901C14.0509 28.7896 14.3814 28.6606 14.6135 28.4439C14.709 28.352 14.3178 28.0592 14.4521 27.9737C15.3409 27.3631 15.6645 26.9117 16.4964 26.3677C16.53 26.33 16.5641 26.2923 16.5987 26.2546C16.6802 26.1661 17.5643 26.43 17.4992 26.1289C17.2715 26.014 16.9948 25.9005 16.7468 25.7891C17.5349 23.4983 18.5727 21.2131 19.2344 18.7373C19.2619 18.6336 18.7465 18.6972 18.7969 18.4969C19.0884 17.3307 19.2024 16.1633 19.9061 15.0379C19.9748 14.9274 20.8037 15.1444 20.7431 14.7593C20.7319 14.6922 20.7168 14.1273 20.5574 13.9562C20.533 13.9327 20.1234 13.963 20.1415 13.7883C20.2532 12.773 20.5008 11.7226 20.8656 10.7481C20.9249 10.5929 21.3255 10.8147 21.3714 10.7043C21.6965 9.89534 21.4639 8.9723 21.8974 8.23744C22.1865 7.75645 22.9085 7.96802 23.6426 7.73123C23.747 7.68796 23.7724 7.37806 24.1923 7.36113C25.25 7.32918 26.4031 7.53752 27.5309 7.48737C27.776 7.46823 27.5172 6.91666 28.1021 7.24582C28.1423 7.27044 28.3288 7.68292 28.5231 7.78637C28.658 7.86185 29.0899 7.74796 29.2603 7.90169C29.4305 8.051 29.0662 8.18204 29.2598 8.42348C29.4559 8.65226 29.9481 8.59326 29.9747 9.0419ZM45.7441 45.1942C45.3534 44.8803 45.7336 46.3273 45.9225 45.9016C45.9311 45.8794 45.7637 45.2095 45.7441 45.1942ZM35.1717 15.8029C34.5695 16.2818 35.5691 16.4204 36.0353 16.0743C36.5022 15.7344 35.3545 15.6577 35.1717 15.8029ZM34.2583 11.7216C33.7815 12.2439 35.9002 12.127 35.4293 11.6618C35.4027 11.6346 34.286 11.6915 34.2583 11.7216ZM23.7617 9.07112C23.782 9.06865 23.8207 8.83065 23.8016 8.82053C23.3383 8.65603 23.2614 9.13201 23.7617 9.07112ZM33.2726 7.5921C33.0069 7.77539 33.3909 8.155 33.7206 7.92613C33.9857 7.74225 33.6031 7.36479 33.2726 7.5921ZM33.0277 53.2071C33.0058 53.2003 32.8997 53.3463 33.0112 53.4053C33.3701 53.5944 33.3929 53.3234 33.0277 53.2071ZM32.8457 0.577036C32.7672 1.61974 31.0227 2.28004 31.213 1.12454C31.2479 0.916383 31.7736 1.57069 31.9303 1.3051C32.2158 0.821541 31.1161 0.501427 31.7054 0.00900488C31.8133 -0.0799687 32.854 0.517647 32.8482 0.578894C32.8474 0.578274 32.8465 0.577655 32.8457 0.577036ZM45.0899 43.5125C45.0783 43.4949 44.8328 43.5472 44.8333 43.5679C44.842 44.0601 45.3255 43.9579 45.0899 43.5125ZM27.5276 62.0976C27.5059 62.0923 27.4155 62.1914 27.3513 62.2524C27.2697 62.3322 27.2863 62.3043 27.3174 62.3104C27.4692 62.4478 27.4798 62.6144 27.5562 62.6905C27.6356 62.7648 27.7471 62.7463 27.8238 62.6654C27.9661 62.5196 27.937 62.2142 27.5276 62.0976ZM40.9417 35.7229C40.4099 35.8826 40.1093 35.6725 40.3704 35.0859C40.5497 35.3087 40.7533 35.509 40.9417 35.7229Z" fill="#506916"/>
</svg>
